<svg width="20" height="20" viewBox="0 0 20 20" fill="none" xmlns="http://www.w3.org/2000/svg">
<path d="M13.3352 0C13.5878 0 13.8301 0.100346 14.0087 0.278963C14.1873 0.457579 14.2877 0.699836 14.2877 0.952438V1.90488H19.0502V7.61951H17.1271L19.7427 14.8047C19.9301 15.2883 20.0167 15.805 19.9973 16.3232C19.978 16.8415 19.853 17.3503 19.6301 17.8186C19.4071 18.2868 19.091 18.7046 18.7009 19.0464C18.3108 19.3881 17.8551 19.6467 17.3615 19.8062C16.868 19.9656 16.3472 20.0227 15.8308 19.9738C15.3145 19.9249 14.8136 19.7711 14.3588 19.5219C13.904 19.2726 13.5048 18.9332 13.1858 18.5243C12.8668 18.1154 12.6347 17.6456 12.5036 17.1439H8.45258C8.2361 17.9798 7.74218 18.7174 7.05171 19.236C6.36125 19.7546 5.51515 20.0234 4.65196 19.9984C3.78877 19.9734 2.95965 19.6561 2.30037 19.0984C1.64109 18.5407 1.19071 17.7757 1.023 16.9286C0.714317 16.7674 0.455743 16.5247 0.275383 16.2268C0.0950222 15.9289 -0.000223054 15.5872 3.9225e-07 15.239V5.71463C3.9225e-07 5.46203 0.100354 5.21977 0.278984 5.04115C0.457615 4.86254 0.69989 4.76219 0.952511 4.76219H7.62009C7.87271 4.76219 8.11498 4.86254 8.29361 5.04115C8.47225 5.21977 8.5726 5.46203 8.5726 5.71463V10.4768C8.5726 10.7294 8.67295 10.9717 8.85158 11.1503C9.03021 11.3289 9.27249 11.4293 9.52511 11.4293H11.4301C11.6828 11.4293 11.925 11.3289 12.1037 11.1503C12.2823 10.9717 12.3826 10.7294 12.3826 10.4768V1.90488H9.52511V0H13.3352ZM4.76256 14.2866C4.25731 14.2866 3.77276 14.4873 3.4155 14.8445C3.05824 15.2017 2.85753 15.6862 2.85753 16.1915C2.85753 16.6967 3.05824 17.1812 3.4155 17.5384C3.77276 17.8956 4.25731 18.0963 4.76256 18.0963C5.2678 18.0963 5.75235 17.8956 6.10961 17.5384C6.46687 17.1812 6.66758 16.6967 6.66758 16.1915C6.66758 15.6862 6.46687 15.2017 6.10961 14.8445C5.75235 14.4873 5.2678 14.2866 4.76256 14.2866ZM16.1927 14.2856C15.7876 14.2857 15.393 14.415 15.0664 14.6546C14.7398 14.8942 14.498 15.2317 14.3763 15.6181C14.2545 16.0045 14.2592 16.4196 14.3894 16.8031C14.5197 17.1867 14.7689 17.5187 15.1008 17.751C15.4327 17.9833 15.83 18.1038 16.235 18.0949C16.64 18.086 17.0317 17.9483 17.3531 17.7017C17.6744 17.455 17.9088 17.1124 18.0222 16.7235C18.1355 16.3346 18.122 15.9197 17.9834 15.539L17.9682 15.4971C17.8284 15.1401 17.5842 14.8336 17.2674 14.6176C16.9507 14.4016 16.5761 14.2863 16.1927 14.2866V14.2856ZM15.1002 7.61951H14.2877V10.4768C14.2877 11.2346 13.9866 11.9614 13.4507 12.4972C12.9148 13.0331 12.188 13.3341 11.4301 13.3341H9.52511C8.76724 13.3341 8.04042 13.0331 7.50453 12.4972C6.96864 11.9614 6.66758 11.2346 6.66758 10.4768H1.90502V13.6713C2.36303 13.1527 2.95356 12.7685 3.6133 12.56C4.27304 12.3514 4.9771 12.3264 5.65 12.4875C6.3229 12.6486 6.93925 12.9898 7.43297 13.4746C7.92669 13.9593 8.27916 14.5692 8.45258 15.239H12.5027C12.7427 14.3106 13.3238 13.5067 14.1303 12.9877C14.9367 12.4687 15.9092 12.2727 16.8537 12.4388L15.1002 7.61951ZM6.66758 6.66707H1.90502V8.57194H6.66758V6.66707ZM17.1452 3.80975H14.2877V5.71463H17.1452V3.80975Z" fill="#333333"/>
</svg>
