<svg width="8" height="9" viewBox="0 0 8 9" fill="none" xmlns="http://www.w3.org/2000/svg">
<path fill-rule="evenodd" clip-rule="evenodd" d="M3.99998 0.5C4.44181 0.5 4.79998 0.858172 4.79998 1.3V3.70001H7.2C7.64183 3.70001 8 4.05818 8 4.50001C8 4.94183 7.64183 5.30001 7.2 5.30001H4.79998V7.7C4.79998 8.14183 4.44181 8.5 3.99998 8.5C3.55815 8.5 3.19998 8.14183 3.19998 7.7V5.30001H0.8C0.358172 5.30001 0 4.94183 0 4.50001C0 4.05818 0.358172 3.70001 0.8 3.70001H3.19998V1.3C3.19998 0.858172 3.55815 0.5 3.99998 0.5Z" fill="#333333"/>
</svg>
