<svg width="21" height="21" viewBox="0 0 21 21" fill="none" xmlns="http://www.w3.org/2000/svg">
<path d="M15.561 12.8866C14.2393 12.7665 13.5184 14.5692 12.5572 15.0499C10.9952 15.8912 8.11147 12.8866 8.11147 12.8866C8.11147 12.8866 5.10761 10.0023 5.82854 8.43991C6.42931 7.47845 8.23163 6.75736 8.11147 5.43536C7.99132 4.23354 5.34792 -0.0930138 4.02622 1.10881C1.14252 3.75281 0.90221 4.83445 0.90221 6.99773C0.782055 10.7234 5.58823 15.4105 5.58823 15.4105C6.06885 15.8912 10.2743 20.2178 13.999 20.0976C16.1618 20.0976 17.2432 19.8572 19.8866 16.9728C21.0881 15.6508 16.8827 13.0068 15.561 12.8866Z" fill="#333333"/>
</svg>
